# xmcd
#
# Track frame offsets: 
#        183
#        4395
#        28383
#        52875
#        71595
#        99938
#        128148
#        149660
#        187643
#        219230
#        244883
#        268548
#
# Disc length: 3831 seconds
#
# Revision: 4
# Processed by: cddbd v1.5.2PL0 Copyright (c) Steve Scherf et al.
# Submitted via: ExactAudioCopy v0.95b2
#
DISCID=a80ef50c
DTITLE=Jason Rebello - Make It Real
DYEAR=1994
DGENRE=Jazz
TTITLE0=When Words Fail
TTITLE1=Summertime
TTITLE2=Compared To What
TTITLE3=Wake Up
TTITLE4=It's Alright
TTITLE5=The Message
TTITLE6=Wait And See
TTITLE7=Beautiful Day
TTITLE8=It's At Times Like These
TTITLE9=Heartless Monster
TTITLE10=Dolphin Dance
TTITLE11=When words Fail [reprise]
EXTD=YEAR: 1994
EXTT0=
EXTT1=
EXTT2=
EXTT3=
EXTT4=
EXTT5=
EXTT6=
EXTT7=
EXTT8=
EXTT9=
EXTT10=
EXTT11=
PLAYORDER=
